<?xml version="1.0" standalone="no"?>
<!DOCTYPE svg PUBLIC "-//W3C//DTD SVG 20010904//EN"
 "http://www.w3.org/TR/2001/REC-SVG-20010904/DTD/svg10.dtd">
<svg version="1.0" xmlns="http://www.w3.org/2000/svg"
 width="200.000000pt" height="200.000000pt" viewBox="0 0 200.000000 200.000000"
 preserveAspectRatio="xMidYMid meet">

<g transform="translate(0.000000,200.000000) scale(0.100000,-0.100000)"
fill="#C0C0C0" stroke="none">
<path d="M910 1938 c-406 -31 -761 -347 -845 -753 -21 -104 -21 -276 0 -380
76 -365 375 -664 739 -739 102 -22 280 -22 382 0 363 75 663 375 738 738 22
102 22 280 0 382 -49 240 -204 466 -411 601 -185 121 -377 169 -603 151z m-73
-660 l163 -163 163 163 c89 89 167 162 172 162 13 0 135 -122 135 -135 0 -5
-73 -83 -162 -172 l-163 -163 163 -163 c89 -89 162 -167 162 -172 0 -13 -122
-135 -135 -135 -5 0 -83 73 -172 162 l-163 163 -163 -163 c-89 -89 -167 -162
-172 -162 -13 0 -135 122 -135 135 0 5 73 83 162 172 l163 163 -163 163 c-89
89 -162 167 -162 172 0 13 122 135 135 135 5 0 83 -73 172 -162z"/>
</g>
</svg>
